<svg id="Layer_1" data-name="Layer 1" xmlns="http://www.w3.org/2000/svg" viewBox="0 0 962.14 102.46"><defs><style>.cls-1{stroke:#000;stroke-miterlimit:10;stroke-width:2.07px;}</style></defs><path class="cls-1" d="M433.7,86.69A50.13,50.13,0,0,1,467.82,1.1c.45,0,.91-.06,1.35-.06a.24.24,0,0,1,.12,0,50,50,0,0,1,26.6,7.69H496a5,5,0,0,0,7.79-4.25v-2a.52.52,0,0,1,1,0h0V16.07a.52.52,0,0,1-.52.52.46.46,0,0,1-.37-.15h0a49,49,0,0,0-36-14.34c-16.48,1.1-29.64,22.7-29.64,49.11,0,27.09,13.87,49.13,30.92,49.13h0a49.23,49.23,0,0,0,17.68-3.29V57.9a6.21,6.21,0,0,0-6.21-6.17.52.52,0,0,1-.36-.64.5.5,0,0,1,.36-.36h23.61a.52.52,0,0,1,.53.52h0V86.36a.67.67,0,0,1,0,.2,1,1,0,0,1-.11.17,50.42,50.42,0,0,1-10.15,7.84c-.73.44-1.48.85-2.24,1.24-1.53.78-3.1,1.49-4.69,2.12a50.17,50.17,0,0,1-53.86-11.2Z"/><path class="cls-1" d="M537,93.15V9.26A6.22,6.22,0,0,0,530.77,3a.52.52,0,0,1-.52-.52h0a.52.52,0,0,1,.52-.52h50A35.22,35.22,0,0,1,598,67.68l16.14,25.5c2.35,3.44,6.91,6.19,10.36,6.19a.52.52,0,0,1,.52.52h0a.52.52,0,0,1-.52.52H597.73a.51.51,0,0,1-.44-.24L579.75,72.45H554.93V93.14a6.23,6.23,0,0,0,6.23,6.23.52.52,0,0,1,0,1H530.77a.52.52,0,0,1-.35-.64.51.51,0,0,1,.35-.36A6.23,6.23,0,0,0,537,93.15Zm17.94-21.72h25.76c4.57-.22,8.85-4,12-10.52h0c3.12-6.39,4.85-14.79,4.85-23.64,0-18.39-7.57-33.72-16.87-34.19H554.93Z"/><path class="cls-1" d="M641.89,51.21a50.18,50.18,0,1,1,50.18,50.17h0A50.24,50.24,0,0,1,641.89,51.21Zm81.09,0c0-27.09-13.87-49.13-30.91-49.13s-30.92,22-30.92,49.13,13.87,49.13,30.92,49.13S723,78.3,723,51.21Z"/><path class="cls-1" d="M764.27,2.52a.52.52,0,0,1,.51-.53h30.4a.52.52,0,0,1,.52.52h0a.51.51,0,0,1-.51.51h0A6.23,6.23,0,0,0,789,9.26V65c0,19.49,8.27,35.35,18.44,35.35A35.37,35.37,0,0,0,842.68,65V9.26A6.23,6.23,0,0,0,836.47,3a.51.51,0,0,1-.52-.5h0a.52.52,0,0,1,.51-.53H850a.52.52,0,1,1,0,1,6.23,6.23,0,0,0-6.22,6.23V65A36.38,36.38,0,1,1,771,65V9.26A6.24,6.24,0,0,0,764.75,3,.51.51,0,0,1,764.27,2.52Z"/><path class="cls-1" d="M882.61,93.15V9.26A6.23,6.23,0,0,0,876.39,3a.52.52,0,0,1-.52-.52h0a.52.52,0,0,1,.52-.52h49.5a35.23,35.23,0,0,1,0,70.46H900.55V93.15a6.22,6.22,0,0,0,6.22,6.23.52.52,0,0,1,0,1H876.38a.52.52,0,0,1-.35-.64.51.51,0,0,1,.35-.36A6.24,6.24,0,0,0,882.61,93.15Zm17.94-21.73h25.34c9.54,0,17.3-15.34,17.3-34.19S935.43,3,925.89,3H900.55Z"/><path class="cls-1" d="M7.77,93.16V9.26A6.22,6.22,0,0,0,1.55,3a.52.52,0,0,1,0-1H31.94a.52.52,0,0,1,0,1,6.22,6.22,0,0,0-6.22,6.22v83.9a6.23,6.23,0,0,0,6.22,6.22.52.52,0,0,1,.28,1,.45.45,0,0,1-.28,0H1.55a.52.52,0,0,1-.35-.64.51.51,0,0,1,.35-.36A6.23,6.23,0,0,0,7.77,93.16Z"/><path class="cls-1" d="M69.13,86.68a50.12,50.12,0,0,1,34-85.58c.48,0,1-.06,1.47-.06a.28.28,0,0,1,.13,0,50.09,50.09,0,0,1,26.54,7.71h.09a5.07,5.07,0,0,0,7-1.53,5.14,5.14,0,0,0,.8-2.72v-2a.52.52,0,1,1,1,0v2h0V16.07a.61.61,0,0,1,0,.19.38.38,0,0,1-.12.17h0a.31.31,0,0,1-.16.11.6.6,0,0,1-.19,0h0a.6.6,0,0,1-.19,0,.45.45,0,0,1-.17-.11A49,49,0,0,0,103.23,2.1C86.82,3.26,73.7,24.82,73.7,51.17s13.13,47.91,29.53,49.07A49,49,0,0,0,139.35,86a.34.34,0,0,1,.17-.11.47.47,0,0,1,.4,0,.55.55,0,0,1,.28.28.67.67,0,0,1,0,.2V97.87h0v2a.52.52,0,0,1-.52.52.52.52,0,0,1-.52-.52v-2a5.07,5.07,0,0,0-5.09-5,5,5,0,0,0-2.7.8h-.09a50,50,0,0,1-26.58,7.69h-.13a11.64,11.64,0,0,1-1.46-.06A50,50,0,0,1,69.13,86.68Z"/><path class="cls-1" d="M158.51,51.21a50.17,50.17,0,1,1,50.18,50.17h0A50.22,50.22,0,0,1,158.51,51.21Zm81.09,0c0-27.09-13.87-49.13-30.93-49.13s-30.91,22-30.91,49.13,13.87,49.13,30.91,49.13S239.6,78.3,239.6,51.21Z"/><path class="cls-1" d="M287.58,93.16V5.24A12,12,0,0,0,281.36,3a.52.52,0,0,1,0-1H308.1a.52.52,0,0,1,.44.25l54.19,85.61V9.26A6.23,6.23,0,0,0,356.51,3a.5.5,0,0,1-.51-.5h0A.52.52,0,0,1,356.5,2H370a.52.52,0,1,1,0,1,6.23,6.23,0,0,0-6.22,6.13V99.9a.52.52,0,0,1-.52.52H349.73a.52.52,0,0,1-.43-.24L291.94,9.54h0A14.71,14.71,0,0,0,288.63,6V93.17a6.23,6.23,0,0,0,6.22,6.22.52.52,0,0,1,.35.64.53.53,0,0,1-.35.36h-13.5a.52.52,0,0,1-.35-.64.51.51,0,0,1,.35-.36,6.22,6.22,0,0,0,6.23-6.23Z"/></svg>